<svg width="61" height="61" viewBox="0 0 61 61" fill="none" xmlns="http://www.w3.org/2000/svg">
<path d="M23.5194 32.4651C25.2446 34.1335 26.8289 35.6658 28.4132 37.198C24.8221 41.4541 20.3508 44.0759 14.4009 42.9864C8.87342 41.9649 5.24712 38.6621 3.80364 33.3504C2.28975 27.7323 4.96547 21.9098 10.1409 19.0497C15.3163 16.1895 21.7943 16.9386 26.0543 20.9905C30.8072 25.485 35.4545 30.0817 40.1723 34.6102C42.6015 36.9256 46.1926 37.198 48.7979 35.3253C51.7201 33.2142 52.2482 29.1283 49.9949 26.3703C47.7065 23.6123 43.4817 23.1697 40.7356 25.485C39.785 26.2681 39.0104 27.2556 38.2007 28.1409C36.4403 26.4384 34.856 24.9062 33.2717 23.374C36.7572 19.2199 41.158 16.3938 47.7065 17.6537C53.1636 18.6751 57.2123 22.9994 58.1277 28.4133C59.0079 33.7249 56.1209 39.2069 51.0864 41.7606C45.9462 44.3483 39.7146 43.463 35.525 39.4793C30.8425 34.9848 26.1952 30.4562 21.5127 25.9617C19.5059 24.0209 16.6893 23.442 14.2249 24.5316C11.7252 25.6212 10.3521 27.528 10.3169 30.2179C10.2817 32.8737 11.5491 34.8826 14.0488 36.0062C16.5837 37.1299 18.9778 36.7894 21.0902 35.0188C22.0056 34.2016 22.7449 33.2823 23.5194 32.4651Z" fill="#03D69D"/>
</svg>
